<svg width="26" height="23" viewBox="0 0 26 23" fill="none" xmlns="http://www.w3.org/2000/svg">
<path d="M18.7297 11.0541C19.1621 11.2555 19.6594 11.5072 19.5081 12.9096C19.054 14.1394 18.1892 15.1894 16.0054 15.1103C14.254 14.686 12.3513 14.1897 12.5027 10.7089C12.654 8.91095 14.5351 6.41541 17.7351 6.39383C22.3621 6.45856 24.6324 10.5363 24.4378 13.6863C24.2 18.174 20.6036 20.5041 15.6594 20.9356C13.0072 20.9356 9.9297 19.4901 8.52429 17.3109C6.77294 15.0455 6.09547 10.3781 7.57294 7.3C9.13691 4.00616 12.0877 1.93308 15.5729 1.86301C18.809 1.79829 20.9351 3.0137 22.1459 3.76164L25 1" stroke="#568D0F" stroke-width="2" stroke-linecap="round" stroke-linejoin="round"/>
<path d="M8.17838 6.22122C6.46643 8.88352 5.32075 12.3501 4.15676 14.463C3.32072 16.2753 2.18198 17.3109 1 18.6918C5.69357 21.4077 12.9267 21.6268 17.627 20.6551" stroke="#568D0F" stroke-width="2" stroke-linecap="round" stroke-linejoin="round"/>
</svg>
