<svg width="317" height="269" viewBox="0 0 317 269" fill="none" xmlns="http://www.w3.org/2000/svg">
<path d="M230.599 134.014C236.041 136.548 242.298 139.715 240.394 157.362C234.68 172.837 223.797 186.05 196.318 185.054C174.28 179.715 150.338 173.471 152.242 129.67C154.147 107.046 177.817 75.6439 218.084 75.3724C276.307 76.1869 304.875 127.498 302.426 167.136C299.433 223.606 254.179 252.927 191.965 258.356C158.591 258.356 119.866 240.167 102.181 212.746C80.1433 184.24 71.6184 125.507 90.21 86.775C109.89 45.3276 147.021 19.2412 190.877 18.3596C231.597 17.5451 258.351 32.839 273.587 42.2507L309.5 7.50001" stroke="#568D0F" stroke-width="15" stroke-linecap="round" stroke-linejoin="round"/>
<path d="M97.828 73.2005C76.286 106.701 61.8696 150.322 47.2226 176.909C36.7024 199.715 22.3733 212.746 7.50006 230.121C66.5608 264.297 157.578 267.054 216.723 254.827" stroke="#568D0F" stroke-width="15" stroke-linecap="round" stroke-linejoin="round"/>
</svg>
